<svg width="24" height="24" viewBox="0 0 24 24" fill="none" xmlns="http://www.w3.org/2000/svg">
<path d="M20 8.00008H17V6.21008C17 3.60008 15.09 1.27008 12.49 1.02008C9.51 0.740079 7 3.08008 7 6.00008V8.00008H4V22.0001H20V8.00008ZM12 17.0001C10.9 17.0001 10 16.1001 10 15.0001C10 13.9001 10.9 13.0001 12 13.0001C13.1 13.0001 14 13.9001 14 15.0001C14 16.1001 13.1 17.0001 12 17.0001ZM9 8.00008V6.00008C9 4.34008 10.34 3.00008 12 3.00008C13.66 3.00008 15 4.34008 15 6.00008V8.00008H9Z" fill="#79808F"/>
</svg>
